/* XPM */
static char *f0bd9dbb4ed74ea6c46675476d20b68b[] = {
/* columns rows colors chars-per-pixel */
"32 32 17 1 ",
"  c None",
". c #F1605C",
"X c #F26A66",
"o c #F37470",
"O c #F47E7B",
"+ c #F58885",
"@ c #F5928F",
"# c #F69C99",
"$ c #F7A6A3",
"% c #F8B0AE",
"& c #FAC3C2",
"* c #FBCDCC",
"= c #FCD7D6",
"- c #FCE1E0",
"; c #FDEBEB",
": c #FEF5F5",
"> c white",
/* pixels */
"           ..........           ",
"         ..............         ",
"       ..................       ",
"      ....................      ",
"     ......................     ",
"    .........X#%%%%%%%O.....    ",
"   ........X&>>>>>>>>>:......   ",
"  ........X->>>>>>>>>>>.......  ",
"  ........->>>>;===:>>>.......  ",
" ........#>>>-+....@>>>........ ",
" ........->>;X.....+>>>........ ",
".........>>>$......+>>>.........",
".........>>>+......+>>>.........",
".........>>>#......#>>>.........",
".........>>>=......->>-.........",
".........>>>>&X..X&>>>$.........",
".........>>>>>:==:>>>;X.........",
".........>>>>>>>>>>>:O..........",
".........>>>:>>>>>>=o...........",
".........>>>+@%=*%O.$%$.........",
".........>>>+......#>>:.........",
" ........->>+......;>>*........ ",
" ........%>>+....X*>>>#........ ",
"  .......X;>+..X*>>>>-........  ",
"  ........O=o..+>>>>-X........  ",
"   ............+>>>&X........   ",
"    ...........X%#o.........    ",
"     ......................     ",
"      ....................      ",
"       ..................       ",
"         ..............         ",
"           ..........           "
};
