/* XPM */
static char *bf47c6b3708440d8c081abbd2a7f4e18[] = {
/* columns rows colors chars-per-pixel */
"64 64 18 1 ",
"  c None",
". c #F1605C",
"X c #F26A66",
"o c #F37470",
"O c #F47E7B",
"+ c #F58885",
"@ c #F5928F",
"# c #F69C99",
"$ c #F7A6A3",
"% c #F8B0AE",
"& c #F9B9B8",
"* c #FAC3C2",
"= c #FBCDCC",
"- c #FCD7D6",
"; c #FCE1E0",
": c #FDEBEB",
"> c #FEF5F5",
", c white",
/* pixels */
"                         ..............                         ",
"                      ....................                      ",
"                   ..........................                   ",
"                 ..............................                 ",
"               ..................................               ",
"              ....................................              ",
"            ........................................            ",
"           ..........................................           ",
"          ............................................          ",
"         ..............................................         ",
"        ................................................        ",
"       ....................o$=-,,,,,,,,,,,,:%............       ",
"      ...................+-,,,,,,,,,,,,,,,,,,%............      ",
"      .................X-,,,,,,,,,,,,,,,,,,,,>............      ",
"     .................O>,,,,,,,,,,,,,,,,,,,,,,.............     ",
"    .................O>,,,,,,,,,,,,,,,,,,,,,,,..............    ",
"    ................o>,,,,,,,,,,,,,,,,,,,,,,,,..............    ",
"   .................-,,,,,,,,,-%%%%%%%*,,,,,,,...............   ",
"   ................#,,,,,,,>%X.........&,,,,,,...............   ",
"  .................:,,,,,,>O...........+,,,,,,................  ",
"  ................+,,,,,,>O............+,,,,,,................  ",
"  ................&,,,,,,#.............+,,,,,,................  ",
" .................-,,,,,:..............+,,,,,,................. ",
" .................,,,,,,&..............+,,,,,,................. ",
" .................,,,,,,#..............+,,,,,,................. ",
"..................,,,,,,+..............@,,,,,,..................",
"..................,,,,,,%..............%,,,,,,..................",
"..................,,,,,,=..............;,,,,,;..................",
"..................,,,,,,,o............o,,,,,,*..................",
"..................,,,,,,,=............-,,,,,,#..................",
"..................,,,,,,,,$..........*,,,,,,>...................",
"..................,,,,,,,,,*X......o=,,,,,,,%...................",
"..................,,,,,,,,,,>&+++@*,,,,,,,,:X...................",
"..................,,,,,,,,,,,,,,,,,,,,,,,,,+....................",
"..................,,,,,,,,,,,,,,,,,,,,,,,,#.....................",
"..................,,,,,,,,,,,,,,,,,,,,,,,#......................",
"..................,,,,,,,,,,,,,,,,,,,,,>@.......................",
"..................,,,,,,$-,,,,,,,,,,,,&X........................",
"..................,,,,,,+.O&;,,,,,,-$X..........................",
" .................,,,,,,+.....O++o......&,,,,&................. ",
" .................,,,,,,+..............$,,,,,-................. ",
" .................:,,,,,+..............;,,,,,*................. ",
"  ................*,,,,,+.............+,,,,,,$................  ",
"  ................#,,,,,+.............;,,,,,,o................  ",
"  ................X>,,,,+............*,,,,,,-.................  ",
"   ................%,,,,+..........O;,,,,,,,+................   ",
"   ................X:,,,+.......o$=,,,,,,,,-.................   ",
"    ................+,,,+......o>,,,,,,,,,>X................    ",
"    .................#,,+......+,,,,,,,,,>O.................    ",
"     .................@$.......+,,,,,,,,>O.................     ",
"      .........................+,,,,,,,-o.................      ",
"      .........................+,,,,,:#...................      ",
"       ........................o::-%O....................       ",
"        ................................................        ",
"         ..............................................         ",
"          ............................................          ",
"           ..........................................           ",
"            ........................................            ",
"              ....................................              ",
"               ..................................               ",
"                 ..............................                 ",
"                   ..........................                   ",
"                      ....................                      ",
"                         ..............                         "
};
