/* XPM */
static char *_f3b776d74ad41bde0f2ea5412291689[] = {
/* columns rows colors chars-per-pixel */
"128 128 18 1 ",
"  c None",
". c #F1605C",
"X c #F26A66",
"o c #F37470",
"O c #F47E7B",
"+ c #F58885",
"@ c #F5928F",
"# c #F69C99",
"$ c #F7A6A3",
"% c #F8B0AE",
"& c #F9B9B8",
"* c #FAC3C2",
"= c #FBCDCC",
"- c #FCD7D6",
"; c #FCE1E0",
": c #FDEBEB",
"> c #FEF5F5",
", c white",
/* pixels */
"                                                   .........................                                                    ",
"                                               .................................                                                ",
"                                            ........................................                                            ",
"                                         ..............................................                                         ",
"                                      ...................................................                                       ",
"                                    .......................................................                                     ",
"                                  ...........................................................                                   ",
"                                ...............................................................                                 ",
"                               ..................................................................                               ",
"                             ......................................................................                             ",
"                           .........................................................................                            ",
"                          ...........................................................................                           ",
"                         ..............................................................................                         ",
"                       .................................................................................                        ",
"                      ...................................................................................                       ",
"                     .....................................................................................                      ",
"                    ........................................................................................                    ",
"                   ..........................................................................................                   ",
"                  ............................................................................................                  ",
"                 ..............................................................................................                 ",
"                ................................................................................................                ",
"               ................................................X+++++++++++++++++++++O..........................                ",
"              ..........................................o#&->,,,,,,,,,,,,,,,,,,,,,,,,,,;@........................               ",
"             ........................................o$;,,,,,,,,,,,,,,,,,,,,,,,,,,,,,,,,,*........................              ",
"             ......................................+*,,,,,,,,,,,,,,,,,,,,,,,,,,,,,,,,,,,,,&........................             ",
"            .....................................o=,,,,,,,,,,,,,,,,,,,,,,,,,,,,,,,,,,,,,,,,+........................            ",
"           .....................................%,,,,,,,,,,,,,,,,,,,,,,,,,,,,,,,,,,,,,,,,,,*........................            ",
"          ....................................o-,,,,,,,,,,,,,,,,,,,,,,,,,,,,,,,,,,,,,,,,,,,-.........................           ",
"          ...................................O>,,,,,,,,,,,,,,,,,,,,,,,,,,,,,,,,,,,,,,,,,,,,-..........................          ",
"         ...................................#,,,,,,,,,,,,,,,,,,,,,,,,,,,,,,,,,,,,,,,,,,,,,,-..........................          ",
"         ..................................#,,,,,,,,,,,,,,,,,,,,,,,,,,,,,,,,,,,,,,,,,,,,,,,-...........................         ",
"        ..................................O,,,,,,,,,,,,,,,,,,,,,,,,,,,,,,,,,,,,,,,,,,,,,,,,-............................        ",
"       ..................................O>,,,,,,,,,,,,,,,,,,,,,,,,,,,,,,,,,,,,,,,,,,,,,,,,-............................        ",
"       ..................................;,,,,,,,,,,,,,,,,,,,,,,,,,,,,,,,,,,,,,,,,,,,,,,,,,-.............................       ",
"      ..................................&,,,,,,,,,,,,,,,,,,,,-=%%%%%%%%%%%%%=>,,,,,,,,,,,,,-.............................       ",
"      .................................O,,,,,,,,,,,,,,,,,>*@.................o;,,,,,,,,,,,,-..............................      ",
"     ..................................-,,,,,,,,,,,,,,,,%X....................o,,,,,,,,,,,,-..............................      ",
"     .................................@,,,,,,,,,,,,,,,;o.......................-,,,,,,,,,,,-...............................     ",
"    ..................................-,,,,,,,,,,,,,,*.........................-,,,,,,,,,,,-...............................     ",
"    .................................+,,,,,,,,,,,,,,*..........................-,,,,,,,,,,,-...............................     ",
"    .................................*,,,,,,,,,,,,,-...........................-,,,,,,,,,,,-................................    ",
"   ..................................>,,,,,,,,,,,,>X...........................-,,,,,,,,,,,-................................    ",
"   .................................@,,,,,,,,,,,,,#............................-,,,,,,,,,,,-.................................   ",
"   .................................&,,,,,,,,,,,,:.............................-,,,,,,,,,,,-.................................   ",
"  ..................................-,,,,,,,,,,,,#.............................-,,,,,,,,,,,-.................................   ",
"  ..................................,,,,,,,,,,,,,X.............................-,,,,,,,,,,,-..................................  ",
"  .................................X,,,,,,,,,,,,=..............................-,,,,,,,,,,,-..................................  ",
" ..................................+,,,,,,,,,,,,%..............................-,,,,,,,,,,,-..................................  ",
" ..................................+,,,,,,,,,,,,@..............................-,,,,,,,,,,,-..................................  ",
" ..................................+,,,,,,,,,,,,+..............................-,,,,,,,,,,,-................................... ",
" ..................................+,,,,,,,,,,,,+..............................-,,,,,,,,,,,-................................... ",
"...................................+,,,,,,,,,,,,+..............................-,,,,,,,,,,,-................................... ",
"...................................+,,,,,,,,,,,,$..............................,,,,,,,,,,,,-................................... ",
"...................................+,,,,,,,,,,,,&.............................O,,,,,,,,,,,,*................................... ",
"...................................+,,,,,,,,,,,,:.............................$,,,,,,,,,,,,%....................................",
"...................................+,,,,,,,,,,,,,O............................;,,,,,,,,,,,,+....................................",
"...................................+,,,,,,,,,,,,,*...........................+,,,,,,,,,,,,,X....................................",
"...................................+,,,,,,,,,,,,,,o..........................-,,,,,,,,,,,,-.....................................",
"...................................+,,,,,,,,,,,,,,=.........................@,,,,,,,,,,,,,$.....................................",
"...................................+,,,,,,,,,,,,,,,#.......................O>,,,,,,,,,,,,,o.....................................",
"...................................+,,,,,,,,,,,,,,,>O.....................X;,,,,,,,,,,,,,=......................................",
"...................................+,,,,,,,,,,,,,,,,>O...................X;,,,,,,,,,,,,,,+......................................",
"...................................+,,,,,,,,,,,,,,,,,,$.................+>,,,,,,,,,,,,,,-.......................................",
"...................................+,,,,,,,,,,,,,,,,,,,-o.............X*,,,,,,,,,,,,,,,,+.......................................",
"...................................+,,,,,,,,,,,,,,,,,,,,,*@.........O*>,,,,,,,,,,,,,,,,=........................................",
"...................................+,,,,,,,,,,,,,,,,,,,,,,,>=%%@%%=:,,,,,,,,,,,,,,,,,,>X........................................",
"...................................+,,,,,,,,,,,,,,,,,,,,,,,,,,,,,,,,,,,,,,,,,,,,,,,,,,@.........................................",
"...................................+,,,,,,,,,,,,,,,,,,,,,,,,,,,,,,,,,,,,,,,,,,,,,,,,,&..........................................",
"...................................+,,,,,,,,,,,,,,,,,,,,,,,,,,,,,,,,,,,,,,,,,,,,,,,,*...........................................",
"...................................+,,,,,,,,,,,,,,,,,,,,,,,,,,,,,,,,,,,,,,,,,,,,,,,;X...........................................",
"...................................+,,,,,,,,,,,,,,,,,,,,,,,,,,,,,,,,,,,,,,,,,,,,,,=X............................................",
"...................................+,,,,,,,,,,,,,,,,,,,,,,,,,,,,,,,,,,,,,,,,,,,,,*..............................................",
"...................................+,,,,,,,,,,,,,,,,,,,,,,,,,,,,,,,,,,,,,,,,,,,>#...............................................",
"...................................+,,,,,,,,,,,,-,,,,,,,,,,,,,,,,,,,,,,,,,,,,,-o............................................... ",
"...................................+,,,,,,,,,,,,.#>,,,,,,,,,,,,,,,,,,,,,,,,,:#................................................. ",
"...................................+,,,,,,,,,,,,..X%:,,,,,,,,,,,,,,,,,,,,,:#................................................... ",
" ..................................+,,,,,,,,,,,,.....@*>,,,,,,,,,,,,,,,>*+..................................................... ",
" ..................................+,,,,,,,,,,,,........+%=;,,,,,,,-*$O........................................................ ",
" ..................................+,,,,,,,,,,,,................................X*>,,,,,,,-...................................  ",
" ..................................+,,,,,,,,,,,,...............................X:,,,,,,,,,,+..................................  ",
"  .................................+,,,,,,,,,,,,...............................-,,,,,,,,,,,+..................................  ",
"  .................................o,,,,,,,,,,,,..............................O,,,,,,,,,,,,+..................................  ",
"  ..................................,,,,,,,,,,,,..............................$,,,,,,,,,,,,..................................   ",
"  ..................................-,,,,,,,,,,,..............................:,,,,,,,,,,,:..................................   ",
"   .................................&,,,,,,,,,,,.............................+,,,,,,,,,,,,*..................................   ",
"   .................................@,,,,,,,,,,,.............................-,,,,,,,,,,,,#.................................    ",
"   ..................................,,,,,,,,,,,............................$,,,,,,,,,,,,,X.................................    ",
"    .................................*,,,,,,,,,,...........................O>,,,,,,,,,,,,=..................................    ",
"    .................................+,,,,,,,,,,..........................X>,,,,,,,,,,,,,#.................................     ",
"     .................................:,,,,,,,,,.........................O:,,,,,,,,,,,,,:..................................     ",
"     .................................#,,,,,,,,,........................@>,,,,,,,,,,,,,,#.................................      ",
"      .................................;,,,,,,,,......................o=,,,,,,,,,,,,,,,:..................................      ",
"      .................................+,,,,,,,,....................@*,,,,,,,,,,,,,,,,,+.................................       ",
"       .................................&,,,,,,,................o&-,,,,,,,,,,,,,,,,,,,=..................................       ",
"       .................................X;,,,,,,...............o>,,,,,,,,,,,,,,,,,,,,:X.................................        ",
"        .................................O>,,,,,...............%,,,,,,,,,,,,,,,,,,,,>O..................................        ",
"        ..................................O,,,,,...............%,,,,,,,,,,,,,,,,,,,,#..................................         ",
"         ..................................#,,,;...............%,,,,,,,,,,,,,,,,,,,#...................................         ",
"         ...................................@--O...............%,,,,,,,,,,,,,,,,,,#...................................          ",
"          .....................................................%,,,,,,,,,,,,,,,,>O...................................           ",
"           ....................................................%,,,,,,,,,,,,,,,-X....................................           ",
"            ...................................................%,,,,,,,,,,,,,>$.....................................            ",
"            ...................................................%,,,,,,,,,,,>%X.....................................             ",
"             ..................................................%,,,,,,,,,:%X......................................              ",
"              .................................................#,,,,,,:&@.........................................              ",
"               .................................................$=%%+X...........................................               ",
"                ................................................................................................                ",
"                ...............................................................................................                 ",
"                 .............................................................................................                  ",
"                  ...........................................................................................                   ",
"                   .........................................................................................                    ",
"                    .......................................................................................                     ",
"                      ....................................................................................                      ",
"                       ..................................................................................                       ",
"                        ...............................................................................                         ",
"                         .............................................................................                          ",
"                           ..........................................................................                           ",
"                            .......................................................................                             ",
"                              ....................................................................                              ",
"                               .................................................................                                ",
"                                 .............................................................                                  ",
"                                   .........................................................                                    ",
"                                     .....................................................                                      ",
"                                        ................................................                                        ",
"                                          ...........................................                                           ",
"                                             .....................................                                              ",
"                                                 .............................                                                  ",
"                                                      ...................                                                       "
};
